<svg width="574" height="198" viewBox="0 0 574 198" fill="none" xmlns="http://www.w3.org/2000/svg">
<path d="M256.299 68.25C261.999 68.25 266.949 68.85 271.149 70.05C275.449 71.25 278.749 72.95 281.049 75.15C283.449 77.25 284.649 79.8 284.649 82.8C284.649 84.8 284.049 86.7 282.849 88.5C281.649 90.2 279.899 91.05 277.599 91.05C275.999 91.05 274.649 90.85 273.549 90.45C272.549 89.95 271.649 89.35 270.849 88.65C270.049 87.95 269.099 87.3 267.999 86.7C266.999 86.1 265.449 85.65 263.349 85.35C261.349 84.95 259.849 84.75 258.849 84.75C253.749 84.75 249.399 85.85 245.799 88.05C242.299 90.25 239.599 93.25 237.699 97.05C235.799 100.75 234.849 105.05 234.849 109.95C234.849 114.75 235.799 119.05 237.699 122.85C239.699 126.55 242.399 129.5 245.799 131.7C249.299 133.9 253.299 135 257.799 135C260.299 135 262.449 134.85 264.249 134.55C266.049 134.25 267.549 133.8 268.749 133.2C270.149 132.4 271.399 131.55 272.499 130.65C273.599 129.75 275.249 129.3 277.449 129.3C280.049 129.3 282.049 130.15 283.449 131.85C284.849 133.45 285.549 135.45 285.549 137.85C285.549 140.35 284.149 142.65 281.349 144.75C278.549 146.75 274.849 148.4 270.249 149.7C265.749 150.9 260.849 151.5 255.549 151.5C247.649 151.5 240.799 149.7 234.999 146.1C229.199 142.4 224.699 137.4 221.499 131.1C218.399 124.8 216.849 117.75 216.849 109.95C216.849 101.75 218.499 94.55 221.799 88.35C225.199 82.05 229.849 77.15 235.749 73.65C241.749 70.05 248.599 68.25 256.299 68.25ZM364.378 109.95C364.378 118.15 362.528 125.4 358.828 131.7C355.228 137.9 350.328 142.75 344.128 146.25C338.028 149.75 331.178 151.5 323.578 151.5C315.978 151.5 309.078 149.75 302.878 146.25C296.778 142.75 291.878 137.9 288.178 131.7C284.578 125.4 282.778 118.15 282.778 109.95C282.778 101.75 284.578 94.55 288.178 88.35C291.878 82.05 296.778 77.15 302.878 73.65C309.078 70.05 315.978 68.25 323.578 68.25C331.178 68.25 338.028 70.05 344.128 73.65C350.328 77.15 355.228 82.05 358.828 88.35C362.528 94.55 364.378 101.75 364.378 109.95ZM346.378 109.95C346.378 104.85 345.328 100.45 343.228 96.75C341.228 92.95 338.478 90 334.978 87.9C331.578 85.8 327.778 84.75 323.578 84.75C319.378 84.75 315.528 85.8 312.028 87.9C308.628 90 305.878 92.95 303.778 96.75C301.778 100.45 300.778 104.85 300.778 109.95C300.778 114.95 301.778 119.35 303.778 123.15C305.878 126.85 308.628 129.75 312.028 131.85C315.528 133.95 319.378 135 323.578 135C327.778 135 331.578 133.95 334.978 131.85C338.478 129.75 341.228 126.85 343.228 123.15C345.328 119.35 346.378 114.95 346.378 109.95ZM411.032 68.25C418.432 68.25 424.032 69.8 427.832 72.9C431.732 76 434.382 80.15 435.782 85.35C437.282 90.45 438.032 96.15 438.032 102.45V140.85C438.032 143.45 437.182 145.65 435.482 147.45C433.782 149.15 431.632 150 429.032 150C426.432 150 424.282 149.15 422.582 147.45C420.882 145.65 420.032 143.45 420.032 140.85V102.45C420.032 99.15 419.582 96.2 418.682 93.6C417.882 90.9 416.382 88.75 414.182 87.15C411.982 85.55 408.832 84.75 404.732 84.75C400.732 84.75 397.332 85.55 394.532 87.15C391.832 88.75 389.732 90.9 388.232 93.6C386.832 96.2 386.132 99.15 386.132 102.45V140.85C386.132 143.45 385.282 145.65 383.582 147.45C381.882 149.15 379.732 150 377.132 150C374.532 150 372.382 149.15 370.682 147.45C368.982 145.65 368.132 143.45 368.132 140.85V78.9C368.132 76.3 368.982 74.15 370.682 72.45C372.382 70.65 374.532 69.75 377.132 69.75C379.732 69.75 381.882 70.65 383.582 72.45C385.282 74.15 386.132 76.3 386.132 78.9V85.35L383.882 84.9C384.782 83.2 386.082 81.4 387.782 79.5C389.482 77.5 391.482 75.65 393.782 73.95C396.082 72.25 398.682 70.9 401.582 69.9C404.482 68.8 407.632 68.25 411.032 68.25ZM446.387 71.25H481.937C484.337 71.25 486.337 72.05 487.937 73.65C489.537 75.25 490.337 77.25 490.337 79.65C490.337 81.95 489.537 83.9 487.937 85.5C486.337 87 484.337 87.75 481.937 87.75H446.387C443.987 87.75 441.987 86.95 440.387 85.35C438.787 83.75 437.987 81.75 437.987 79.35C437.987 77.05 438.787 75.15 440.387 73.65C441.987 72.05 443.987 71.25 446.387 71.25ZM462.437 52.5C465.037 52.5 467.137 53.4 468.737 55.2C470.437 56.9 471.287 59.05 471.287 61.65V128.4C471.287 129.8 471.537 130.95 472.037 131.85C472.637 132.75 473.387 133.4 474.287 133.8C475.287 134.2 476.337 134.4 477.437 134.4C478.637 134.4 479.737 134.2 480.737 133.8C481.737 133.3 482.887 133.05 484.187 133.05C485.587 133.05 486.837 133.7 487.937 135C489.137 136.3 489.737 138.1 489.737 140.4C489.737 143.2 488.187 145.5 485.087 147.3C482.087 149.1 478.837 150 475.337 150C473.237 150 470.887 149.85 468.287 149.55C465.787 149.15 463.387 148.3 461.087 147C458.887 145.6 457.037 143.5 455.537 140.7C454.037 137.9 453.287 134.05 453.287 129.15V61.65C453.287 59.05 454.137 56.9 455.837 55.2C457.637 53.4 459.837 52.5 462.437 52.5ZM554.414 69.75C557.014 69.75 559.164 70.65 560.864 72.45C562.564 74.15 563.414 76.3 563.414 78.9V142.65C563.414 151.85 561.664 159.15 558.164 164.55C554.764 170.05 550.164 174 544.364 176.4C538.564 178.8 532.064 180 524.864 180C521.664 180 518.264 179.75 514.664 179.25C511.064 178.75 508.114 178 505.814 177C502.814 175.7 500.714 174.05 499.514 172.05C498.414 170.15 498.214 168.1 498.914 165.9C499.814 163 501.264 161 503.264 159.9C505.264 158.9 507.364 158.8 509.564 159.6C511.164 160.1 513.264 160.85 515.864 161.85C518.464 162.95 521.464 163.5 524.864 163.5C529.464 163.5 533.264 162.85 536.264 161.55C539.364 160.35 541.664 158.25 543.164 155.25C544.764 152.35 545.564 148.35 545.564 143.25V133.2L548.714 136.8C547.014 140.1 544.864 142.85 542.264 145.05C539.764 147.15 536.764 148.75 533.264 149.85C529.764 150.95 525.764 151.5 521.264 151.5C515.964 151.5 511.314 150.3 507.314 147.9C503.414 145.4 500.364 142 498.164 137.7C495.964 133.3 494.864 128.3 494.864 122.7V78.9C494.864 76.3 495.714 74.15 497.414 72.45C499.114 70.65 501.264 69.75 503.864 69.75C506.464 69.75 508.614 70.65 510.314 72.45C512.014 74.15 512.864 76.3 512.864 78.9V117.3C512.864 123.8 514.264 128.4 517.064 131.1C519.964 133.7 523.964 135 529.064 135C532.564 135 535.514 134.35 537.914 133.05C540.314 131.65 542.164 129.65 543.464 127.05C544.764 124.35 545.414 121.1 545.414 117.3V78.9C545.414 76.3 546.264 74.15 547.964 72.45C549.664 70.65 551.814 69.75 554.414 69.75Z" fill="white"/>
<mask id="mask0_2248_3396" style="mask-type:alpha" maskUnits="userSpaceOnUse" x="0" y="8" width="190" height="190">
<rect y="8" width="189.129" height="189.129" rx="36" fill="#C4C4C4"/>
</mask>
<g mask="url(#mask0_2248_3396)">
<rect y="8" width="189.129" height="189.129" rx="36" fill="#F18D8D"/>
<rect y="8" width="189.129" height="189.129" fill="#2984F6"/>
</g>
<path d="M126.146 124.225C140.121 123.1 140.771 144.953 97.2736 144.066C73.9553 143.591 51.6701 131.968 53.1469 103.788C54.6237 75.609 76.1668 58.6532 101.777 61.4874C130.613 64.6786 140.403 92.0125 126.146 124.225Z" fill="white"/>
</svg>
